<?xml version="1.0" encoding="utf-8"?>
<!-- Generator: Adobe Illustrator 22.0.0, SVG Export Plug-In . SVG Version: 6.00 Build 0)  -->
<svg version="1.1" id="Layer_1" xmlns="http://www.w3.org/2000/svg" xmlns:xlink="http://www.w3.org/1999/xlink" x="0px" y="0px"
	 viewBox="0 0 511 511" style="enable-background:new 0 0 511 511;" xml:space="preserve">
<style type="text/css">
	.st0{fill:#FFFFFF;}
</style>
<path class="st0" d="M266,425.5c-71.1,28.8-148.6,25.7-217.6-7.8c70.9-5.2,113.7-41.5,115.8-43.3c3.1-2.7,4.2-7,2.9-10.9
	c-1.4-3.9-5-6.5-9.1-6.6c-28.1-1-50.8-11.5-67.4-31.5c-5.1-6.1-8.8-12.2-11.5-17.3c17.9-0.1,31.4-3.2,32.1-3.4
	c4.5-1.1,7.7-5.1,7.7-9.7c0-4.6-3.1-8.6-7.6-9.7c-54.6-13.4-68.1-51.5-71.3-73.1c17.4,6.4,32.5,6.1,33.3,6.1
	c4.2-0.1,7.9-2.8,9.3-6.8c1.3-4,0-8.4-3.3-11C28.7,161.2,37.4,115,45.7,93.1c6.9,7.3,14.5,14.5,22.7,21.6c4.2,3.6,10.5,3.1,14.1-1
	c3.6-4.2,3.1-10.5-1-14.1C69.7,89.5,59.4,79.1,50.8,68.8c-2.1-2.5-5.2-3.8-8.4-3.5c-3.2,0.2-6.1,2-7.8,4.7c-0.5,0.8-12.7,21-14.8,49
	c-1.5,19.8,1.9,46.4,22.1,72.5c-2.5-1.1-5-2.4-7.5-4c-3-1.8-6.7-2-9.8-0.4c-3.1,1.6-5.2,4.6-5.5,8.1c-0.1,0.9-1.6,22.2,8.4,46.2
	c6.1,14.7,17.5,32.4,38.4,46.2c-0.3,0-0.7-0.1-1-0.1c-3.3-0.3-6.5,0.9-8.7,3.4c-2.1,2.5-2.9,5.9-2.1,9.1c0.2,0.8,5.2,19,20.4,37.5
	c10.8,13.2,28.6,28.5,55.7,35.5c-23.2,12.9-64.8,29.5-119.4,24.4c-4.6-0.4-8.8,2.3-10.3,6.6c-1.5,4.3,0.1,9.1,3.9,11.6
	C54.3,448.5,110,465.1,166,465.1c36.2,0,72.6-7,107.5-21.1c5.1-2.1,7.6-7.9,5.5-13C276.9,425.9,271.1,423.5,266,425.5z"/>
<path class="st0" d="M508.4,97.4c-2.9-3.1-7.5-4.1-11.4-2.4c-5.8,2.6-11.4,4.7-16.7,6.4C496.7,81.6,498,66.2,498.1,64
	c0.2-3.8-1.8-7.4-5.2-9.2c-3.3-1.8-7.4-1.6-10.5,0.6c-19.8,13.9-44.9,20.5-55.8,22.3C406,57.8,379,46.9,350.2,46.9
	c-60.8,0-110.3,49.5-110.3,110.3c0,4.2,0.2,8.4,0.7,12.6c-35.1,0.7-70.5-13.7-95.1-26.5c-4.9-2.6-10.9-0.7-13.5,4.2
	c-2.6,4.9-0.7,10.9,4.2,13.5c29.5,15.4,73.7,32.8,117.1,28c2.8-0.3,5.4-1.8,7-4.1c1.6-2.3,2.2-5.2,1.6-8c-1.4-6.4-2.2-13.1-2.2-19.7
	c0-49.8,40.5-90.4,90.4-90.4c25,0,48.3,10,65.5,28.2c2.1,2.2,5.1,3.3,8,3.1c6.6-0.4,24-3.8,42.8-11.6c-5.7,7.3-14,15.8-26.4,24.5
	c-3.7,2.6-5.2,7.3-3.6,11.5c1.5,4.2,5.7,6.9,10.1,6.6c0.7-0.1,11.7-0.9,27.4-5c-8.7,9.5-18.9,18.3-29,24.8c-2.8,1.8-4.5,5-4.5,8.4
	c0,92.1-39.3,175.8-107.9,229.6c-4.3,3.4-5.1,9.7-1.7,14c2,2.5,4.9,3.8,7.9,3.8c2.2,0,4.3-0.7,6.2-2.1c35-27.5,64-63.3,83.7-103.6
	c20.4-41.8,31.2-87.6,31.9-136.4c20-14.1,39-34.6,49.3-53.6C511.8,105.2,511.3,100.5,508.4,97.4z"/>
<path class="st0" d="M300.9,408.4L300.9,408.4c-4.9,2.6-6.7,8.7-4.1,13.5c1.8,3.3,5.2,5.3,8.8,5.3c1.6,0,3.2-0.4,4.7-1.2
	c4.9-2.6,6.7-8.7,4.1-13.5C311.8,407.6,305.8,405.8,300.9,408.4z"/>
<path class="st0" d="M101,139.7c1.7,1.2,3.7,1.8,5.7,1.8c3.2,0,6.3-1.5,8.2-4.3c3.1-4.5,2-10.7-2.5-13.9l0,0
	c-4.5-3.1-10.7-2-13.9,2.5C95.3,130.4,96.4,136.6,101,139.7z"/>
</svg>
